<?xml version="1.0" encoding="utf-8"?>
<!-- Generator: Adobe Illustrator 24.0.0, SVG Export Plug-In . SVG Version: 6.00 Build 0)  -->
<svg version="1.1" xmlns="http://www.w3.org/2000/svg" xmlns:xlink="http://www.w3.org/1999/xlink" x="0px" y="0px"
	 viewBox="0 0 38.5 38.7" enable-background="new 0 0 38.5 38.7" xml:space="preserve">
<g id="Слой_1">
</g>
<g id="Слой_2">
	<path fill="#FFFFFF" stroke="#254768" stroke-miterlimit="10" d="M21.9,0.6H2.3c-0.9,0-1.7,0.8-1.7,1.7v15.3c0,0.9,0.8,1.7,1.7,1.7
		h2.9v5.1l2.6-2.9l1.9-2.1h12.2c0.9,0,1.7-0.8,1.7-1.7V2.3C23.6,1.3,22.9,0.6,21.9,0.6z"/>
	<path fill="#FFFFFF" stroke="#254768" stroke-miterlimit="10" d="M16.5,13.7h19.7c0.9,0,1.7,0.8,1.7,1.7v15.3
		c0,0.9-0.8,1.7-1.7,1.7h-2.9v5.1l-2.6-2.9l-1.9-2.1H16.5c-0.9,0-1.7-0.8-1.7-1.7V15.4C14.8,14.5,15.5,13.7,16.5,13.7z"/>
	<rect x="2.9" y="3.9" fill="none" width="11.1" height="11.2"/>
	<text transform="matrix(1 0 0 1 2.9038 12.283)" fill="#254768" font-family="'MyriadPro-Regular'" font-size="11.7822px">Q</text>
	<rect x="17" y="15.1" fill="none" width="11.1" height="11.2"/>
	<text transform="matrix(1 0 0 1 16.9546 23.492)" fill="#254768" font-family="'MyriadPro-Regular'" font-size="11.7822px">A</text>
</g>
</svg>
