<?xml version="1.0" encoding="utf-8"?>
<!-- Generator: Adobe Illustrator 24.0.0, SVG Export Plug-In . SVG Version: 6.00 Build 0)  -->
<svg version="1.1" id="Слой_1" xmlns="http://www.w3.org/2000/svg" xmlns:xlink="http://www.w3.org/1999/xlink" x="0px" y="0px"
	 viewBox="0 0 43.6 38.7" enable-background="new 0 0 43.6 38.7" xml:space="preserve">
<g id="Слой_1_1_">
</g>
<path fill="none" stroke="#254768" stroke-miterlimit="10" d="M21.8,0.5c-5.1,0-9.3,4.2-9.3,9.3c0,4.1,6.1,11.7,8.4,14.5
	c0.5,0.6,1.3,0.6,1.8,0C25,21.5,31,13.9,31,9.8C31,4.6,26.9,0.5,21.8,0.5z M21.8,12.9c-1.7,0-3.1-1.4-3.1-3.1s1.4-3.1,3.1-3.1
	s3.1,1.4,3.1,3.1S23.5,12.9,21.8,12.9z M2,16.4c-0.9,0.4-1.5,1.2-1.5,2.2V37c0,0.8,0.8,1.4,1.6,1.1l10.2-4.6V16.3
	c-0.7-1.2-1.2-2.3-1.6-3.4L2,16.4z M21.8,27c-1,0-2-0.5-2.7-1.3c-1.4-1.7-3-3.7-4.4-5.7v13.4l14.2,4.7V20.1c-1.4,2-2.9,3.9-4.4,5.7
	C23.8,26.5,22.8,27,21.8,27z M41.4,12.4L31.2,17v21.2l10.3-4.1c0.9-0.4,1.5-1.2,1.5-2.2V13.5C43,12.6,42.1,12,41.4,12.4L41.4,12.4z"
	/>
</svg>
