<?xml version="1.0" encoding="utf-8"?>
<!-- Generator: Adobe Illustrator 24.0.0, SVG Export Plug-In . SVG Version: 6.00 Build 0)  -->
<svg version="1.1" id="Слой_1" xmlns="http://www.w3.org/2000/svg" xmlns:xlink="http://www.w3.org/1999/xlink" x="0px" y="0px"
	 viewBox="0 0 46.3 38.7" enable-background="new 0 0 46.3 38.7" xml:space="preserve">
<path fill="#FFFFFF" stroke="#254768" stroke-miterlimit="10" d="M43.3,33.1H3.1c-1.4,0-2.5-1-2.5-2.1V6.8c0-1.2,1.2-2.1,2.5-2.1
	h40.3c1.4,0,2.5,1,2.5,2.1V31C45.9,32.1,44.7,33.1,43.3,33.1z"/>
<rect x="6.1" y="3.4" fill="#FFFFFF" width="33.3" height="31"/>
<path fill="#FFFFFF" stroke="#254768" stroke-miterlimit="10" d="M34.8,38.3H10.2c-0.9,0-1.5-1.3-1.5-2.8V3.3c0-1.6,0.7-2.8,1.5-2.8
	h24.5c0.9,0,1.5,1.3,1.5,2.8v32.2C36.4,37,35.7,38.3,34.8,38.3z"/>
<circle fill="none" stroke="#254768" stroke-miterlimit="10" cx="17.5" cy="9.3" r="3.2"/>
<line fill="none" stroke="#254768" stroke-miterlimit="10" x1="8.7" y1="28.4" x2="20" y2="15.9"/>
<line fill="none" stroke="#254768" stroke-miterlimit="10" x1="28.2" y1="25.1" x2="19.6" y2="16"/>
<line fill="none" stroke="#254768" stroke-miterlimit="10" x1="25.8" y1="22.7" x2="29.9" y2="17.9"/>
<line fill="none" stroke="#254768" stroke-miterlimit="10" x1="36.3" y1="25.1" x2="29.7" y2="17.8"/>
<rect x="6.1" y="2.9" fill="none" width="33.8" height="31.6"/>
</svg>
