<?xml version="1.0" encoding="utf-8"?>
<!-- Generator: Adobe Illustrator 24.0.0, SVG Export Plug-In . SVG Version: 6.00 Build 0)  -->
<svg version="1.1" id="Слой_1" focusable="false"
	 xmlns="http://www.w3.org/2000/svg" xmlns:xlink="http://www.w3.org/1999/xlink" x="0px" y="0px" viewBox="0 0 428 428"
	 enable-background="new 0 0 428 428" xml:space="preserve">
<path fill="#254768" d="M333,11.1C325.8,4,316.3,0,306.1,0H38C17,0,0,17,0,38v352c0,21,17,38,38,38h352c21,0,38-17,38-38V121.9
	c0-10.1-4-19.7-11.1-26.9L333,11.1z M124,28h148v100H124V28z M400,384c0,8.8-7.2,16-16,16H44c-8.8,0-16-7.2-16-16V44
	c0-8.8,7.2-16,16-16h52v114c0,7.7,6.3,14,14,14h176c7.7,0,14-6.3,14-14V17.7l95.3,95.3c3,3,4.7,7,4.7,11.3V384z"/>
<path fill="#254768" d="M214,200c-43,0-78,35-78,78s35,78,78,78c43,0,78-35,78-78S257,200,214,200z M214,328c-27.6,0-50-22.4-50-50
	s22.4-50,50-50s50,22.4,50,50S241.6,328,214,328z"/>
</svg>
