<?xml version="1.0" encoding="utf-8"?>
<!-- Generator: Adobe Illustrator 24.0.0, SVG Export Plug-In . SVG Version: 6.00 Build 0)  -->
<svg version="1.1" xmlns="http://www.w3.org/2000/svg" xmlns:xlink="http://www.w3.org/1999/xlink" x="0px" y="0px"
	 viewBox="0 0 44.9 38.7" enable-background="new 0 0 44.9 38.7" xml:space="preserve">
<g id="Слой_1">
</g>
<g id="Слой_2">
	<path fill="#254768" d="M22.5,27.3h-17L1.7,38.6H0.2L13.4,0h1.3l13.2,38.6h-1.5L22.5,27.3z M22,25.7L14,2.2L6,25.7H22z"/>
	<path opacity="0.35" fill="#254768" d="M43.1,18.7c1.2,1.3,1.8,3.3,1.8,5.8v14.1h-1.1v-4.4c-0.6,1.4-1.5,2.5-2.7,3.3
		c-1.2,0.8-2.6,1.2-4.2,1.2c-2.1,0-3.7-0.6-4.9-1.7c-1.2-1.1-1.8-2.6-1.8-4.4c0-1.8,0.5-3.2,1.6-4.3c1.1-1.1,2.8-1.7,5.1-1.7h6.7
		v-2.1c0-2.2-0.5-3.8-1.4-4.9c-1-1.1-2.4-1.7-4.3-1.7c-1.3,0-2.5,0.3-3.7,0.8c-1.1,0.5-2.1,1.2-2.9,2.1l-0.6-1c0.9-1,2-1.8,3.3-2.3
		c1.3-0.6,2.6-0.8,4-0.8C40.3,16.7,42,17.3,43.1,18.7z M43.7,32.3v-4.5H37c-1.9,0-3.3,0.4-4.2,1.3c-0.9,0.9-1.3,2-1.3,3.5
		c0,1.6,0.5,2.8,1.5,3.7c1,0.9,2.3,1.3,4,1.3C40.3,37.5,42.5,35.8,43.7,32.3z"/>
</g>
</svg>
