<?xml version="1.0" encoding="utf-8"?>
<!-- Generator: Adobe Illustrator 24.0.0, SVG Export Plug-In . SVG Version: 6.00 Build 0)  -->
<svg version="1.1" xmlns="http://www.w3.org/2000/svg" xmlns:xlink="http://www.w3.org/1999/xlink" x="0px" y="0px"
	 viewBox="0 0 44.9 38.7" enable-background="new 0 0 44.9 38.7" xml:space="preserve">
<g id="Слой_1">
</g>
<g id="Слой_2">
	<path fill="none" stroke="#254768" stroke-miterlimit="10" d="M18.6,38.2H3.4c-1.6,0-2.8-1.3-2.8-2.8V3.3c0-1.6,1.3-2.8,2.8-2.8
		h15.2c1.6,0,2.8,1.3,2.8,2.8v32.1C21.5,36.9,20.2,38.2,18.6,38.2z"/>
	<path fill="none" stroke="#254768" stroke-miterlimit="10" d="M41.6,38.2H26.4c-1.6,0-2.8-1.3-2.8-2.8V3.3c0-1.6,1.3-2.8,2.8-2.8
		h15.2c1.6,0,2.8,1.3,2.8,2.8v32.1C44.5,36.9,43.2,38.2,41.6,38.2z"/>
	<rect x="0.4" y="18.3" fill="#254768" width="4.6" height="2.6"/>
	<rect x="17.4" y="18.3" fill="#254768" width="4.6" height="2.6"/>
	<rect x="23.4" y="18.3" fill="#254768" width="4.6" height="2.6"/>
	<rect x="40.4" y="18.3" fill="#254768" width="4.6" height="2.6"/>
	<g>
		<path fill="#254768" d="M15.7,29.5c0,0.5-0.2,0.9-0.5,1.3c-0.3,0.3-0.7,0.5-1.3,0.5h-6c-0.5,0-0.9-0.2-1.2-0.5
			c-0.3-0.3-0.5-0.7-0.5-1.3v-6.2h2.2v6h5.1V17.7H6.2l0.3-11h8.9v1.9H8.7l-0.3,7.2h5.5c0.5,0,0.9,0.2,1.3,0.5
			c0.3,0.3,0.5,0.7,0.5,1.3V29.5z"/>
	</g>
	<g>
		<path fill="#254768" d="M38.8,29.5c0,0.5-0.2,0.9-0.5,1.3c-0.3,0.3-0.7,0.5-1.2,0.5H31c-0.5,0-0.9-0.2-1.3-0.5
			c-0.3-0.3-0.5-0.7-0.5-1.3V24h2.2v5.2h5.3v-9h-5.8c-0.5,0-0.9-0.2-1.2-0.5c-0.3-0.3-0.5-0.7-0.5-1.3v-10c0-0.5,0.2-0.9,0.5-1.2
			c0.3-0.3,0.7-0.5,1.2-0.5h6.3c0.5,0,0.9,0.2,1.2,0.5c0.3,0.3,0.5,0.7,0.5,1.2V29.5z M36.7,18.3V8.7h-5.3v9.7H36.7z"/>
	</g>
</g>
</svg>
